<?xml version="1.0" encoding="UTF-8" standalone="no"?><svg xmlns="http://www.w3.org/2000/svg" xmlns:xlink="http://www.w3.org/1999/xlink" contentStyleType="text/css" height="735px" preserveAspectRatio="none" style="width:2604px;height:735px;background:#FFFFFF;" version="1.1" viewBox="0 0 2604 735" width="2604px" zoomAndPan="magnify"><defs/><g><!--MD5=[b6dcce5e5ef3c84b0b048d11301373dd]
class Game--><g id="elem_Game"><rect codeLine="1" fill="#F1F1F1" height="162.0781" id="Game" rx="2.5" ry="2.5" style="stroke:#181818;stroke-width:0.5;" width="224" x="1407" y="7"/><ellipse cx="1494.25" cy="23" fill="#ADD1B2" rx="11" ry="11" style="stroke:#181818;stroke-width:1.0;"/><path d="M1497.2188,28.6406 Q1496.6406,28.9375 1496,29.0781 Q1495.3594,29.2344 1494.6563,29.2344 Q1492.1563,29.2344 1490.8281,27.5938 Q1489.5156,25.9375 1489.5156,22.8125 Q1489.5156,19.6875 1490.8281,18.0313 Q1492.1563,16.375 1494.6563,16.375 Q1495.3594,16.375 1496,16.5313 Q1496.6563,16.6875 1497.2188,16.9844 L1497.2188,19.7031 Q1496.5938,19.125 1496,18.8594 Q1495.4063,18.5781 1494.7813,18.5781 Q1493.4375,18.5781 1492.75,19.6563 Q1492.0625,20.7188 1492.0625,22.8125 Q1492.0625,24.9063 1492.75,25.9844 Q1493.4375,27.0469 1494.7813,27.0469 Q1495.4063,27.0469 1496,26.7813 Q1496.5938,26.5 1497.2188,25.9219 L1497.2188,28.6406 Z " fill="#000000"/><text fill="#000000" font-family="sans-serif" font-size="14" lengthAdjust="spacing" textLength="41" x="1514.75" y="27.8467">Game</text><line style="stroke:#181818;stroke-width:0.5;" x1="1408" x2="1630" y1="39" y2="39"/><rect fill="none" height="6" style="stroke:#C82930;stroke-width:1.0;" width="6" x="1415" y="49.6484"/><text fill="#000000" font-family="sans-serif" font-size="14" lengthAdjust="spacing" textLength="77" x="1427" y="55.9951">IMusic mus</text><rect fill="none" height="6" style="stroke:#C82930;stroke-width:1.0;" width="6" x="1415" y="65.9453"/><text fill="#000000" font-family="sans-serif" font-size="14" lengthAdjust="spacing" textLength="63" x="1427" y="72.292">Map map</text><rect fill="none" height="6" style="stroke:#C82930;stroke-width:1.0;" width="6" x="1415" y="82.2422"/><text fill="#000000" font-family="sans-serif" font-size="14" lengthAdjust="spacing" textLength="144" x="1427" y="88.5889">RayCasting raycaster</text><rect fill="none" height="6" style="stroke:#C82930;stroke-width:1.0;" width="6" x="1415" y="98.5391"/><text fill="#000000" font-family="sans-serif" font-size="14" lengthAdjust="spacing" textLength="170" x="1427" y="104.8857">ICollision collisionSystem</text><rect fill="none" height="6" style="stroke:#C82930;stroke-width:1.0;" width="6" x="1415" y="114.8359"/><text fill="#000000" font-family="sans-serif" font-size="14" lengthAdjust="spacing" textLength="155" x="1427" y="121.1826">IRender renderSystem</text><line style="stroke:#181818;stroke-width:0.5;" x1="1408" x2="1630" y1="128.4844" y2="128.4844"/><ellipse cx="1418" cy="142.1328" fill="#84BE84" rx="3" ry="3" style="stroke:#038048;stroke-width:1.0;"/><text fill="#000000" font-family="sans-serif" font-size="14" lengthAdjust="spacing" textLength="198" x="1427" y="145.4795">void switchRender(IRender*)</text><ellipse cx="1418" cy="158.4297" fill="#84BE84" rx="3" ry="3" style="stroke:#038048;stroke-width:1.0;"/><text fill="#000000" font-family="sans-serif" font-size="14" lengthAdjust="spacing" textLength="91" x="1427" y="161.7764">void update()</text></g><!--MD5=[15ac7a446292bd9db2b2bc1062dc129d]
class IMusic--><g id="elem_IMusic"><rect codeLine="11" fill="#F1F1F1" height="96.8906" id="IMusic" rx="2.5" ry="2.5" style="stroke:#181818;stroke-width:0.5;" width="172" x="64" y="360"/><ellipse cx="124.25" cy="376" fill="#B4A7E5" rx="11" ry="11" style="stroke:#181818;stroke-width:1.0;"/><path d="M120.1719,371.7656 L120.1719,369.6094 L127.5625,369.6094 L127.5625,371.7656 L125.0938,371.7656 L125.0938,379.8438 L127.5625,379.8438 L127.5625,382 L120.1719,382 L120.1719,379.8438 L122.6406,379.8438 L122.6406,371.7656 L120.1719,371.7656 Z " fill="#000000"/><text fill="#000000" font-family="sans-serif" font-size="14" font-style="italic" lengthAdjust="spacing" textLength="43" x="144.75" y="380.8467">IMusic</text><line style="stroke:#181818;stroke-width:0.5;" x1="65" x2="235" y1="392" y2="392"/><line style="stroke:#181818;stroke-width:0.5;" x1="65" x2="235" y1="400" y2="400"/><ellipse cx="75" cy="413.6484" fill="#84BE84" rx="3" ry="3" style="stroke:#038048;stroke-width:1.0;"/><text fill="#000000" font-family="sans-serif" font-size="14" lengthAdjust="spacing" textLength="113" x="84" y="416.9951">virtual void play()</text><ellipse cx="75" cy="429.9453" fill="#84BE84" rx="3" ry="3" style="stroke:#038048;stroke-width:1.0;"/><text fill="#000000" font-family="sans-serif" font-size="14" lengthAdjust="spacing" textLength="117" x="84" y="433.292">virtual void stop()</text><ellipse cx="75" cy="446.2422" fill="#84BE84" rx="3" ry="3" style="stroke:#038048;stroke-width:1.0;"/><text fill="#000000" font-family="sans-serif" font-size="14" lengthAdjust="spacing" textLength="146" x="84" y="449.5889">virtual void setValue()</text></g><!--MD5=[4d6e70c873cc908f9292c4f76f49c4b0]
class SFMLMusic--><g id="elem_SFMLMusic"><rect codeLine="17" fill="#F1F1F1" height="96.8906" id="SFMLMusic" rx="2.5" ry="2.5" style="stroke:#181818;stroke-width:0.5;" width="128" x="7" y="632"/><ellipse cx="31" cy="648" fill="#ADD1B2" rx="11" ry="11" style="stroke:#181818;stroke-width:1.0;"/><path d="M33.9688,653.6406 Q33.3906,653.9375 32.75,654.0781 Q32.1094,654.2344 31.4063,654.2344 Q28.9063,654.2344 27.5781,652.5938 Q26.2656,650.9375 26.2656,647.8125 Q26.2656,644.6875 27.5781,643.0313 Q28.9063,641.375 31.4063,641.375 Q32.1094,641.375 32.75,641.5313 Q33.4063,641.6875 33.9688,641.9844 L33.9688,644.7031 Q33.3438,644.125 32.75,643.8594 Q32.1563,643.5781 31.5313,643.5781 Q30.1875,643.5781 29.5,644.6563 Q28.8125,645.7188 28.8125,647.8125 Q28.8125,649.9063 29.5,650.9844 Q30.1875,652.0469 31.5313,652.0469 Q32.1563,652.0469 32.75,651.7813 Q33.3438,651.5 33.9688,650.9219 L33.9688,653.6406 Z " fill="#000000"/><text fill="#000000" font-family="sans-serif" font-size="14" lengthAdjust="spacing" textLength="76" x="47" y="652.8467">SFMLMusic</text><line style="stroke:#181818;stroke-width:0.5;" x1="8" x2="134" y1="664" y2="664"/><line style="stroke:#181818;stroke-width:0.5;" x1="8" x2="134" y1="672" y2="672"/><ellipse cx="18" cy="685.6484" fill="#84BE84" rx="3" ry="3" style="stroke:#038048;stroke-width:1.0;"/><text fill="#000000" font-family="sans-serif" font-size="14" lengthAdjust="spacing" textLength="69" x="27" y="688.9951">void play()</text><ellipse cx="18" cy="701.9453" fill="#84BE84" rx="3" ry="3" style="stroke:#038048;stroke-width:1.0;"/><text fill="#000000" font-family="sans-serif" font-size="14" lengthAdjust="spacing" textLength="73" x="27" y="705.292">void stop()</text><ellipse cx="18" cy="718.2422" fill="#84BE84" rx="3" ry="3" style="stroke:#038048;stroke-width:1.0;"/><text fill="#000000" font-family="sans-serif" font-size="14" lengthAdjust="spacing" textLength="102" x="27" y="721.5889">void setValue()</text></g><!--MD5=[4dfc6a72b8dd60daa1b635d583ff79da]
class Map--><g id="elem_Map"><rect codeLine="23" fill="#F1F1F1" height="243.5625" id="Map" rx="2.5" ry="2.5" style="stroke:#181818;stroke-width:0.5;" width="465" x="350.5" y="286.5"/><ellipse cx="564.25" cy="302.5" fill="#ADD1B2" rx="11" ry="11" style="stroke:#181818;stroke-width:1.0;"/><path d="M567.2188,308.1406 Q566.6406,308.4375 566,308.5781 Q565.3594,308.7344 564.6563,308.7344 Q562.1563,308.7344 560.8281,307.0938 Q559.5156,305.4375 559.5156,302.3125 Q559.5156,299.1875 560.8281,297.5313 Q562.1563,295.875 564.6563,295.875 Q565.3594,295.875 566,296.0313 Q566.6563,296.1875 567.2188,296.4844 L567.2188,299.2031 Q566.5938,298.625 566,298.3594 Q565.4063,298.0781 564.7813,298.0781 Q563.4375,298.0781 562.75,299.1563 Q562.0625,300.2188 562.0625,302.3125 Q562.0625,304.4063 562.75,305.4844 Q563.4375,306.5469 564.7813,306.5469 Q565.4063,306.5469 566,306.2813 Q566.5938,306 567.2188,305.4219 L567.2188,308.1406 Z " fill="#000000"/><text fill="#000000" font-family="sans-serif" font-size="14" lengthAdjust="spacing" textLength="29" x="584.75" y="307.3467">Map</text><line style="stroke:#181818;stroke-width:0.5;" x1="351.5" x2="814.5" y1="318.5" y2="318.5"/><rect fill="none" height="6" style="stroke:#C82930;stroke-width:1.0;" width="6" x="358.5" y="329.1484"/><text fill="#000000" font-family="sans-serif" font-size="14" lengthAdjust="spacing" textLength="181" x="370.5" y="335.4951">vector&lt;vector&lt;int&gt;&gt; grid</text><rect fill="none" height="6" style="stroke:#C82930;stroke-width:1.0;" width="6" x="358.5" y="345.4453"/><text fill="#000000" font-family="sans-serif" font-size="14" lengthAdjust="spacing" textLength="308" x="370.5" y="351.792">vector&lt;std::unique_ptr&lt;Enemy&gt;&gt; enemies</text><rect fill="none" height="6" style="stroke:#C82930;stroke-width:1.0;" width="6" x="358.5" y="361.7422"/><text fill="#000000" font-family="sans-serif" font-size="14" lengthAdjust="spacing" textLength="216" x="370.5" y="368.0889">std::unique_ptr&lt;Player&gt; player</text><line style="stroke:#181818;stroke-width:0.5;" x1="351.5" x2="814.5" y1="375.3906" y2="375.3906"/><ellipse cx="361.5" cy="389.0391" fill="#84BE84" rx="3" ry="3" style="stroke:#038048;stroke-width:1.0;"/><text fill="#000000" font-family="sans-serif" font-size="14" lengthAdjust="spacing" textLength="335" x="370.5" y="392.3857">bool checkAccessToAddObj(float x, float y) const</text><ellipse cx="361.5" cy="405.3359" fill="#84BE84" rx="3" ry="3" style="stroke:#038048;stroke-width:1.0;"/><text fill="#000000" font-family="sans-serif" font-size="14" lengthAdjust="spacing" textLength="248" x="370.5" y="408.6826">void setPlayerPosition(float x, float y)</text><ellipse cx="361.5" cy="421.6328" fill="#84BE84" rx="3" ry="3" style="stroke:#038048;stroke-width:1.0;"/><text fill="#000000" font-family="sans-serif" font-size="14" lengthAdjust="spacing" textLength="159" x="370.5" y="424.9795">void addWall(int x, int y)</text><ellipse cx="361.5" cy="437.9297" fill="#84BE84" rx="3" ry="3" style="stroke:#038048;stroke-width:1.0;"/><text fill="#000000" font-family="sans-serif" font-size="14" lengthAdjust="spacing" textLength="185" x="370.5" y="441.2764">void removeWall(int x, int y)</text><ellipse cx="361.5" cy="454.2266" fill="#84BE84" rx="3" ry="3" style="stroke:#038048;stroke-width:1.0;"/><text fill="#000000" font-family="sans-serif" font-size="14" lengthAdjust="spacing" textLength="203" x="370.5" y="457.5732">void addEnemy(float x, float y)</text><ellipse cx="361.5" cy="470.5234" fill="#84BE84" rx="3" ry="3" style="stroke:#038048;stroke-width:1.0;"/><text fill="#000000" font-family="sans-serif" font-size="14" lengthAdjust="spacing" textLength="217" x="370.5" y="473.8701">const Player&amp; getPlayer() const</text><ellipse cx="361.5" cy="486.8203" fill="#84BE84" rx="3" ry="3" style="stroke:#038048;stroke-width:1.0;"/><text fill="#000000" font-family="sans-serif" font-size="14" lengthAdjust="spacing" textLength="394" x="370.5" y="490.167">const vector&lt;std::unique_ptr&lt;Wall&gt;&gt;&amp; getWalls() const</text><ellipse cx="361.5" cy="503.1172" fill="#84BE84" rx="3" ry="3" style="stroke:#038048;stroke-width:1.0;"/><text fill="#000000" font-family="sans-serif" font-size="14" lengthAdjust="spacing" textLength="439" x="370.5" y="506.4639">const vector&lt;std::unique_ptr&lt;Enemy&gt;&gt;&amp; getEnemies() const</text><ellipse cx="361.5" cy="519.4141" fill="#84BE84" rx="3" ry="3" style="stroke:#038048;stroke-width:1.0;"/><text fill="#000000" font-family="sans-serif" font-size="14" lengthAdjust="spacing" textLength="246" x="370.5" y="522.7607">void removeEnemy(Enemy* enemy)</text></g><!--MD5=[9d36d618130ce453e5acf269970e3fc6]
class ICollision--><g id="elem_ICollision"><rect codeLine="38" fill="#F1F1F1" height="80.5938" id="ICollision" rx="2.5" ry="2.5" style="stroke:#181818;stroke-width:0.5;" width="554" x="1242" y="368"/><ellipse cx="1484.75" cy="384" fill="#B4A7E5" rx="11" ry="11" style="stroke:#181818;stroke-width:1.0;"/><path d="M1480.6719,379.7656 L1480.6719,377.6094 L1488.0625,377.6094 L1488.0625,379.7656 L1485.5938,379.7656 L1485.5938,387.8438 L1488.0625,387.8438 L1488.0625,390 L1480.6719,390 L1480.6719,387.8438 L1483.1406,387.8438 L1483.1406,379.7656 L1480.6719,379.7656 Z " fill="#000000"/><text fill="#000000" font-family="sans-serif" font-size="14" font-style="italic" lengthAdjust="spacing" textLength="60" x="1505.25" y="388.8467">ICollision</text><line style="stroke:#181818;stroke-width:0.5;" x1="1243" x2="1795" y1="400" y2="400"/><line style="stroke:#181818;stroke-width:0.5;" x1="1243" x2="1795" y1="408" y2="408"/><ellipse cx="1253" cy="421.6484" fill="#84BE84" rx="3" ry="3" style="stroke:#038048;stroke-width:1.0;"/><text fill="#000000" font-family="sans-serif" font-size="14" lengthAdjust="spacing" textLength="528" x="1262" y="424.9951">virtual bool checkMoveToCollision(const Map&amp; map, float new_x, float new_y)</text><ellipse cx="1253" cy="437.9453" fill="#84BE84" rx="3" ry="3" style="stroke:#038048;stroke-width:1.0;"/><text fill="#000000" font-family="sans-serif" font-size="14" lengthAdjust="spacing" textLength="330" x="1262" y="441.292">virtual bool checkFireCollision(const Map&amp; map)</text></g><!--MD5=[a30223c26e796446a852014118663eaa]
class RadiusCollision--><g id="elem_RadiusCollision"><rect codeLine="43" fill="#F1F1F1" height="80.5938" id="RadiusCollision" rx="2.5" ry="2.5" style="stroke:#181818;stroke-width:0.5;" width="510" x="1286" y="640"/><ellipse cx="1484.75" cy="656" fill="#ADD1B2" rx="11" ry="11" style="stroke:#181818;stroke-width:1.0;"/><path d="M1487.7188,661.6406 Q1487.1406,661.9375 1486.5,662.0781 Q1485.8594,662.2344 1485.1563,662.2344 Q1482.6563,662.2344 1481.3281,660.5938 Q1480.0156,658.9375 1480.0156,655.8125 Q1480.0156,652.6875 1481.3281,651.0313 Q1482.6563,649.375 1485.1563,649.375 Q1485.8594,649.375 1486.5,649.5313 Q1487.1563,649.6875 1487.7188,649.9844 L1487.7188,652.7031 Q1487.0938,652.125 1486.5,651.8594 Q1485.9063,651.5781 1485.2813,651.5781 Q1483.9375,651.5781 1483.25,652.6563 Q1482.5625,653.7188 1482.5625,655.8125 Q1482.5625,657.9063 1483.25,658.9844 Q1483.9375,660.0469 1485.2813,660.0469 Q1485.9063,660.0469 1486.5,659.7813 Q1487.0938,659.5 1487.7188,658.9219 L1487.7188,661.6406 Z " fill="#000000"/><text fill="#000000" font-family="sans-serif" font-size="14" lengthAdjust="spacing" textLength="104" x="1505.25" y="660.8467">RadiusCollision</text><line style="stroke:#181818;stroke-width:0.5;" x1="1287" x2="1795" y1="672" y2="672"/><line style="stroke:#181818;stroke-width:0.5;" x1="1287" x2="1795" y1="680" y2="680"/><ellipse cx="1297" cy="693.6484" fill="#84BE84" rx="3" ry="3" style="stroke:#038048;stroke-width:1.0;"/><text fill="#000000" font-family="sans-serif" font-size="14" lengthAdjust="spacing" textLength="484" x="1306" y="696.9951">bool checkMoveToCollision(const Map&amp; map, float new_x, float new_y)</text><ellipse cx="1297" cy="709.9453" fill="#84BE84" rx="3" ry="3" style="stroke:#038048;stroke-width:1.0;"/><text fill="#000000" font-family="sans-serif" font-size="14" lengthAdjust="spacing" textLength="286" x="1306" y="713.292">bool checkFireCollision(const Map&amp; map)</text></g><!--MD5=[70df16ced072a7fe47cbb136d6b578ed]
class IRender--><g id="elem_IRender"><rect codeLine="48" fill="#F1F1F1" height="64.2969" id="IRender" rx="2.5" ry="2.5" style="stroke:#181818;stroke-width:0.5;" width="276" x="1831" y="376.5"/><ellipse cx="1937.75" cy="392.5" fill="#B4A7E5" rx="11" ry="11" style="stroke:#181818;stroke-width:1.0;"/><path d="M1933.6719,388.2656 L1933.6719,386.1094 L1941.0625,386.1094 L1941.0625,388.2656 L1938.5938,388.2656 L1938.5938,396.3438 L1941.0625,396.3438 L1941.0625,398.5 L1933.6719,398.5 L1933.6719,396.3438 L1936.1406,396.3438 L1936.1406,388.2656 L1933.6719,388.2656 Z " fill="#000000"/><text fill="#000000" font-family="sans-serif" font-size="14" font-style="italic" lengthAdjust="spacing" textLength="54" x="1958.25" y="397.3467">IRender</text><line style="stroke:#181818;stroke-width:0.5;" x1="1832" x2="2106" y1="408.5" y2="408.5"/><line style="stroke:#181818;stroke-width:0.5;" x1="1832" x2="2106" y1="416.5" y2="416.5"/><ellipse cx="1842" cy="430.1484" fill="#84BE84" rx="3" ry="3" style="stroke:#038048;stroke-width:1.0;"/><text fill="#000000" font-family="sans-serif" font-size="14" lengthAdjust="spacing" textLength="250" x="1851" y="433.4951">virtual void render(const Map&amp; map)</text></g><!--MD5=[2345108fc1b9b4fd7e16635353716a80]
class RayCasting--><g id="elem_RayCasting"><rect codeLine="52" fill="#F1F1F1" height="80.5938" id="RayCasting" rx="2.5" ry="2.5" style="stroke:#181818;stroke-width:0.5;" width="316" x="2142" y="368"/><ellipse cx="2257.25" cy="384" fill="#ADD1B2" rx="11" ry="11" style="stroke:#181818;stroke-width:1.0;"/><path d="M2260.2188,389.6406 Q2259.6406,389.9375 2259,390.0781 Q2258.3594,390.2344 2257.6563,390.2344 Q2255.1563,390.2344 2253.8281,388.5938 Q2252.5156,386.9375 2252.5156,383.8125 Q2252.5156,380.6875 2253.8281,379.0313 Q2255.1563,377.375 2257.6563,377.375 Q2258.3594,377.375 2259,377.5313 Q2259.6563,377.6875 2260.2188,377.9844 L2260.2188,380.7031 Q2259.5938,380.125 2259,379.8594 Q2258.4063,379.5781 2257.7813,379.5781 Q2256.4375,379.5781 2255.75,380.6563 Q2255.0625,381.7188 2255.0625,383.8125 Q2255.0625,385.9063 2255.75,386.9844 Q2256.4375,388.0469 2257.7813,388.0469 Q2258.4063,388.0469 2259,387.7813 Q2259.5938,387.5 2260.2188,386.9219 L2260.2188,389.6406 Z " fill="#000000"/><text fill="#000000" font-family="sans-serif" font-size="14" lengthAdjust="spacing" textLength="77" x="2277.75" y="388.8467">RayCasting</text><line style="stroke:#181818;stroke-width:0.5;" x1="2143" x2="2457" y1="400" y2="400"/><rect fill="none" height="6" style="stroke:#C82930;stroke-width:1.0;" width="6" x="2150" y="410.6484"/><text fill="#000000" font-family="sans-serif" font-size="14" lengthAdjust="spacing" textLength="112" x="2162" y="416.9951">float FieldOfView</text><line style="stroke:#181818;stroke-width:0.5;" x1="2143" x2="2457" y1="424.2969" y2="424.2969"/><ellipse cx="2153" cy="437.9453" fill="#84BE84" rx="3" ry="3" style="stroke:#038048;stroke-width:1.0;"/><text fill="#000000" font-family="sans-serif" font-size="14" lengthAdjust="spacing" textLength="290" x="2162" y="441.292">vector&lt;float&gt; castRays(const Map&amp; map)</text></g><!--MD5=[571860bcdf9ffbeadcabefa9918d4cec]
class SFMLRender--><g id="elem_SFMLRender"><rect codeLine="57" fill="#F1F1F1" height="64.2969" id="SFMLRender" rx="2.5" ry="2.5" style="stroke:#181818;stroke-width:0.5;" width="232" x="1831" y="648.5"/><ellipse cx="1899.25" cy="664.5" fill="#ADD1B2" rx="11" ry="11" style="stroke:#181818;stroke-width:1.0;"/><path d="M1902.2188,670.1406 Q1901.6406,670.4375 1901,670.5781 Q1900.3594,670.7344 1899.6563,670.7344 Q1897.1563,670.7344 1895.8281,669.0938 Q1894.5156,667.4375 1894.5156,664.3125 Q1894.5156,661.1875 1895.8281,659.5313 Q1897.1563,657.875 1899.6563,657.875 Q1900.3594,657.875 1901,658.0313 Q1901.6563,658.1875 1902.2188,658.4844 L1902.2188,661.2031 Q1901.5938,660.625 1901,660.3594 Q1900.4063,660.0781 1899.7813,660.0781 Q1898.4375,660.0781 1897.75,661.1563 Q1897.0625,662.2188 1897.0625,664.3125 Q1897.0625,666.4063 1897.75,667.4844 Q1898.4375,668.5469 1899.7813,668.5469 Q1900.4063,668.5469 1901,668.2813 Q1901.5938,668 1902.2188,667.4219 L1902.2188,670.1406 Z " fill="#000000"/><text fill="#000000" font-family="sans-serif" font-size="14" lengthAdjust="spacing" textLength="87" x="1919.75" y="669.3467">SFMLRender</text><line style="stroke:#181818;stroke-width:0.5;" x1="1832" x2="2062" y1="680.5" y2="680.5"/><line style="stroke:#181818;stroke-width:0.5;" x1="1832" x2="2062" y1="688.5" y2="688.5"/><ellipse cx="1842" cy="702.1484" fill="#84BE84" rx="3" ry="3" style="stroke:#038048;stroke-width:1.0;"/><text fill="#000000" font-family="sans-serif" font-size="14" lengthAdjust="spacing" textLength="206" x="1851" y="705.4951">void render(const Map&amp; map)</text></g><!--MD5=[4bf71e4133169848b8797ad15beb9411]
class ViewUpRender--><g id="elem_ViewUpRender"><rect codeLine="61" fill="#F1F1F1" height="64.2969" id="ViewUpRender" rx="2.5" ry="2.5" style="stroke:#181818;stroke-width:0.5;" width="232" x="2098" y="648.5"/><ellipse cx="2158.75" cy="664.5" fill="#ADD1B2" rx="11" ry="11" style="stroke:#181818;stroke-width:1.0;"/><path d="M2161.7188,670.1406 Q2161.1406,670.4375 2160.5,670.5781 Q2159.8594,670.7344 2159.1563,670.7344 Q2156.6563,670.7344 2155.3281,669.0938 Q2154.0156,667.4375 2154.0156,664.3125 Q2154.0156,661.1875 2155.3281,659.5313 Q2156.6563,657.875 2159.1563,657.875 Q2159.8594,657.875 2160.5,658.0313 Q2161.1563,658.1875 2161.7188,658.4844 L2161.7188,661.2031 Q2161.0938,660.625 2160.5,660.3594 Q2159.9063,660.0781 2159.2813,660.0781 Q2157.9375,660.0781 2157.25,661.1563 Q2156.5625,662.2188 2156.5625,664.3125 Q2156.5625,666.4063 2157.25,667.4844 Q2157.9375,668.5469 2159.2813,668.5469 Q2159.9063,668.5469 2160.5,668.2813 Q2161.0938,668 2161.7188,667.4219 L2161.7188,670.1406 Z " fill="#000000"/><text fill="#000000" font-family="sans-serif" font-size="14" lengthAdjust="spacing" textLength="102" x="2179.25" y="669.3467">ViewUpRender</text><line style="stroke:#181818;stroke-width:0.5;" x1="2099" x2="2329" y1="680.5" y2="680.5"/><line style="stroke:#181818;stroke-width:0.5;" x1="2099" x2="2329" y1="688.5" y2="688.5"/><ellipse cx="2109" cy="702.1484" fill="#84BE84" rx="3" ry="3" style="stroke:#038048;stroke-width:1.0;"/><text fill="#000000" font-family="sans-serif" font-size="14" lengthAdjust="spacing" textLength="206" x="2118" y="705.4951">void render(const Map&amp; map)</text></g><!--MD5=[8d5ab31249394209d1f942da648b2e60]
class ASCIIRender--><g id="elem_ASCIIRender"><rect codeLine="65" fill="#F1F1F1" height="64.2969" id="ASCIIRender" rx="2.5" ry="2.5" style="stroke:#181818;stroke-width:0.5;" width="232" x="2365" y="648.5"/><ellipse cx="2434.25" cy="664.5" fill="#ADD1B2" rx="11" ry="11" style="stroke:#181818;stroke-width:1.0;"/><path d="M2437.2188,670.1406 Q2436.6406,670.4375 2436,670.5781 Q2435.3594,670.7344 2434.6563,670.7344 Q2432.1563,670.7344 2430.8281,669.0938 Q2429.5156,667.4375 2429.5156,664.3125 Q2429.5156,661.1875 2430.8281,659.5313 Q2432.1563,657.875 2434.6563,657.875 Q2435.3594,657.875 2436,658.0313 Q2436.6563,658.1875 2437.2188,658.4844 L2437.2188,661.2031 Q2436.5938,660.625 2436,660.3594 Q2435.4063,660.0781 2434.7813,660.0781 Q2433.4375,660.0781 2432.75,661.1563 Q2432.0625,662.2188 2432.0625,664.3125 Q2432.0625,666.4063 2432.75,667.4844 Q2433.4375,668.5469 2434.7813,668.5469 Q2435.4063,668.5469 2436,668.2813 Q2436.5938,668 2437.2188,667.4219 L2437.2188,670.1406 Z " fill="#000000"/><text fill="#000000" font-family="sans-serif" font-size="14" lengthAdjust="spacing" textLength="85" x="2454.75" y="669.3467">ASCIIRender</text><line style="stroke:#181818;stroke-width:0.5;" x1="2366" x2="2596" y1="680.5" y2="680.5"/><line style="stroke:#181818;stroke-width:0.5;" x1="2366" x2="2596" y1="688.5" y2="688.5"/><ellipse cx="2376" cy="702.1484" fill="#84BE84" rx="3" ry="3" style="stroke:#038048;stroke-width:1.0;"/><text fill="#000000" font-family="sans-serif" font-size="14" lengthAdjust="spacing" textLength="206" x="2385" y="705.4951">void render(const Map&amp; map)</text></g><!--MD5=[be996cdb8e6bf2fc7cb89c555f2cd144]
class Entity--><g id="elem_Entity"><rect codeLine="69" fill="#F1F1F1" height="325.0469" id="Entity" rx="2.5" ry="2.5" style="stroke:#181818;stroke-width:0.5;" width="233" x="850.5" y="246"/><ellipse cx="943.75" cy="262" fill="#ADD1B2" rx="11" ry="11" style="stroke:#181818;stroke-width:1.0;"/><path d="M946.7188,267.6406 Q946.1406,267.9375 945.5,268.0781 Q944.8594,268.2344 944.1563,268.2344 Q941.6563,268.2344 940.3281,266.5938 Q939.0156,264.9375 939.0156,261.8125 Q939.0156,258.6875 940.3281,257.0313 Q941.6563,255.375 944.1563,255.375 Q944.8594,255.375 945.5,255.5313 Q946.1563,255.6875 946.7188,255.9844 L946.7188,258.7031 Q946.0938,258.125 945.5,257.8594 Q944.9063,257.5781 944.2813,257.5781 Q942.9375,257.5781 942.25,258.6563 Q941.5625,259.7188 941.5625,261.8125 Q941.5625,263.9063 942.25,264.9844 Q942.9375,266.0469 944.2813,266.0469 Q944.9063,266.0469 945.5,265.7813 Q946.0938,265.5 946.7188,264.9219 L946.7188,267.6406 Z " fill="#000000"/><text fill="#000000" font-family="sans-serif" font-size="14" lengthAdjust="spacing" textLength="38" x="964.25" y="266.8467">Entity</text><line style="stroke:#181818;stroke-width:0.5;" x1="851.5" x2="1082.5" y1="278" y2="278"/><rect fill="none" height="6" style="stroke:#C82930;stroke-width:1.0;" width="6" x="858.5" y="288.6484"/><text fill="#000000" font-family="sans-serif" font-size="14" lengthAdjust="spacing" textLength="39" x="870.5" y="294.9951">int hp</text><rect fill="none" height="6" style="stroke:#C82930;stroke-width:1.0;" width="6" x="858.5" y="304.9453"/><text fill="#000000" font-family="sans-serif" font-size="14" lengthAdjust="spacing" textLength="40" x="870.5" y="311.292">float x</text><rect fill="none" height="6" style="stroke:#C82930;stroke-width:1.0;" width="6" x="858.5" y="321.2422"/><text fill="#000000" font-family="sans-serif" font-size="14" lengthAdjust="spacing" textLength="40" x="870.5" y="327.5889">float y</text><rect fill="none" height="6" style="stroke:#C82930;stroke-width:1.0;" width="6" x="858.5" y="337.5391"/><text fill="#000000" font-family="sans-serif" font-size="14" lengthAdjust="spacing" textLength="77" x="870.5" y="343.8857">float speed</text><rect fill="none" height="6" style="stroke:#C82930;stroke-width:1.0;" width="6" x="858.5" y="353.8359"/><text fill="#000000" font-family="sans-serif" font-size="14" lengthAdjust="spacing" textLength="71" x="870.5" y="360.1826">float angle</text><line style="stroke:#181818;stroke-width:0.5;" x1="851.5" x2="1082.5" y1="367.4844" y2="367.4844"/><ellipse cx="861.5" cy="381.1328" fill="#84BE84" rx="3" ry="3" style="stroke:#038048;stroke-width:1.0;"/><text fill="#000000" font-family="sans-serif" font-size="14" lengthAdjust="spacing" textLength="120" x="870.5" y="384.4795">float GetX() const</text><ellipse cx="861.5" cy="397.4297" fill="#84BE84" rx="3" ry="3" style="stroke:#038048;stroke-width:1.0;"/><text fill="#000000" font-family="sans-serif" font-size="14" lengthAdjust="spacing" textLength="120" x="870.5" y="400.7764">float GetY() const</text><ellipse cx="861.5" cy="413.7266" fill="#84BE84" rx="3" ry="3" style="stroke:#038048;stroke-width:1.0;"/><text fill="#000000" font-family="sans-serif" font-size="14" lengthAdjust="spacing" textLength="150" x="870.5" y="417.0732">float GetAngle() const</text><ellipse cx="861.5" cy="430.0234" fill="#84BE84" rx="3" ry="3" style="stroke:#038048;stroke-width:1.0;"/><text fill="#000000" font-family="sans-serif" font-size="14" lengthAdjust="spacing" textLength="118" x="870.5" y="433.3701">int GetHP() const</text><ellipse cx="861.5" cy="446.3203" fill="#84BE84" rx="3" ry="3" style="stroke:#038048;stroke-width:1.0;"/><text fill="#000000" font-family="sans-serif" font-size="14" lengthAdjust="spacing" textLength="186" x="870.5" y="449.667">void setSpeed(float speed)</text><ellipse cx="861.5" cy="462.6172" fill="#84BE84" rx="3" ry="3" style="stroke:#038048;stroke-width:1.0;"/><text fill="#000000" font-family="sans-serif" font-size="14" lengthAdjust="spacing" textLength="126" x="870.5" y="465.9639">float CalculateDX()</text><ellipse cx="861.5" cy="478.9141" fill="#84BE84" rx="3" ry="3" style="stroke:#038048;stroke-width:1.0;"/><text fill="#000000" font-family="sans-serif" font-size="14" lengthAdjust="spacing" textLength="126" x="870.5" y="482.2607">float CalculateDY()</text><ellipse cx="861.5" cy="495.2109" fill="#84BE84" rx="3" ry="3" style="stroke:#038048;stroke-width:1.0;"/><text fill="#000000" font-family="sans-serif" font-size="14" lengthAdjust="spacing" textLength="207" x="870.5" y="498.5576">void takeDamage(int damage)</text><ellipse cx="861.5" cy="511.5078" fill="#84BE84" rx="3" ry="3" style="stroke:#038048;stroke-width:1.0;"/><text fill="#000000" font-family="sans-serif" font-size="14" lengthAdjust="spacing" textLength="122" x="870.5" y="514.8545">void setHP(int hp)</text><ellipse cx="861.5" cy="527.8047" fill="#84BE84" rx="3" ry="3" style="stroke:#038048;stroke-width:1.0;"/><text fill="#000000" font-family="sans-serif" font-size="14" lengthAdjust="spacing" textLength="186" x="870.5" y="531.1514">void move(float dx, float dy)</text><ellipse cx="861.5" cy="544.1016" fill="#84BE84" rx="3" ry="3" style="stroke:#038048;stroke-width:1.0;"/><text fill="#000000" font-family="sans-serif" font-size="14" lengthAdjust="spacing" textLength="63" x="870.5" y="547.4482">void fire()</text><ellipse cx="861.5" cy="560.3984" fill="#84BE84" rx="3" ry="3" style="stroke:#038048;stroke-width:1.0;"/><text fill="#000000" font-family="sans-serif" font-size="14" lengthAdjust="spacing" textLength="145" x="870.5" y="563.7451">void Turn(float angle)</text></g><!--MD5=[2cb47ba637a0d19583e6199456f6ad0b]
class Player--><g id="elem_Player"><rect codeLine="89" fill="#F1F1F1" height="64.2969" id="Player" rx="2.5" ry="2.5" style="stroke:#181818;stroke-width:0.5;" width="567" x="683.5" y="648.5"/><ellipse cx="942.25" cy="664.5" fill="#ADD1B2" rx="11" ry="11" style="stroke:#181818;stroke-width:1.0;"/><path d="M945.2188,670.1406 Q944.6406,670.4375 944,670.5781 Q943.3594,670.7344 942.6563,670.7344 Q940.1563,670.7344 938.8281,669.0938 Q937.5156,667.4375 937.5156,664.3125 Q937.5156,661.1875 938.8281,659.5313 Q940.1563,657.875 942.6563,657.875 Q943.3594,657.875 944,658.0313 Q944.6563,658.1875 945.2188,658.4844 L945.2188,661.2031 Q944.5938,660.625 944,660.3594 Q943.4063,660.0781 942.7813,660.0781 Q941.4375,660.0781 940.75,661.1563 Q940.0625,662.2188 940.0625,664.3125 Q940.0625,666.4063 940.75,667.4844 Q941.4375,668.5469 942.7813,668.5469 Q943.4063,668.5469 944,668.2813 Q944.5938,668 945.2188,667.4219 L945.2188,670.1406 Z " fill="#000000"/><text fill="#000000" font-family="sans-serif" font-size="14" lengthAdjust="spacing" textLength="41" x="962.75" y="669.3467">Player</text><line style="stroke:#181818;stroke-width:0.5;" x1="684.5" x2="1249.5" y1="680.5" y2="680.5"/><line style="stroke:#181818;stroke-width:0.5;" x1="684.5" x2="1249.5" y1="688.5" y2="688.5"/><ellipse cx="694.5" cy="702.1484" fill="#84BE84" rx="3" ry="3" style="stroke:#038048;stroke-width:1.0;"/><text fill="#000000" font-family="sans-serif" font-size="14" lengthAdjust="spacing" textLength="541" x="703.5" y="705.4951">void CheckPressKeyboard(const ICollision&amp; collisionSystem, const Map&amp; map)</text></g><!--MD5=[80c532e980642ebbe770e7ed91e479d0]
class Enemy--><g id="elem_Enemy"><rect codeLine="93" fill="#F1F1F1" height="64.2969" id="Enemy" rx="2.5" ry="2.5" style="stroke:#181818;stroke-width:0.5;" width="478" x="170" y="648.5"/><ellipse cx="381.25" cy="664.5" fill="#ADD1B2" rx="11" ry="11" style="stroke:#181818;stroke-width:1.0;"/><path d="M384.2188,670.1406 Q383.6406,670.4375 383,670.5781 Q382.3594,670.7344 381.6563,670.7344 Q379.1563,670.7344 377.8281,669.0938 Q376.5156,667.4375 376.5156,664.3125 Q376.5156,661.1875 377.8281,659.5313 Q379.1563,657.875 381.6563,657.875 Q382.3594,657.875 383,658.0313 Q383.6563,658.1875 384.2188,658.4844 L384.2188,661.2031 Q383.5938,660.625 383,660.3594 Q382.4063,660.0781 381.7813,660.0781 Q380.4375,660.0781 379.75,661.1563 Q379.0625,662.2188 379.0625,664.3125 Q379.0625,666.4063 379.75,667.4844 Q380.4375,668.5469 381.7813,668.5469 Q382.4063,668.5469 383,668.2813 Q383.5938,668 384.2188,667.4219 L384.2188,670.1406 Z " fill="#000000"/><text fill="#000000" font-family="sans-serif" font-size="14" lengthAdjust="spacing" textLength="47" x="401.75" y="669.3467">Enemy</text><line style="stroke:#181818;stroke-width:0.5;" x1="171" x2="647" y1="680.5" y2="680.5"/><line style="stroke:#181818;stroke-width:0.5;" x1="171" x2="647" y1="688.5" y2="688.5"/><ellipse cx="181" cy="702.1484" fill="#84BE84" rx="3" ry="3" style="stroke:#038048;stroke-width:1.0;"/><text fill="#000000" font-family="sans-serif" font-size="14" lengthAdjust="spacing" textLength="452" x="190" y="705.4951">void EnemyAI(const ICollision&amp; collisionSystem, const Map&amp; map)</text></g><!--MD5=[42bae50e6f249e580e466b4679fc0226]
reverse link Map to Enemy--><g id="link_Map_Enemy"><path codeLine="100" d="M497.85,541.62 C472.17,581.48 446.26,621.68 429.11,648.3 " fill="none" id="Map-backto-Enemy" style="stroke:#181818;stroke-width:1.0;"/><polygon fill="#181818" points="504.91,530.68,498.2975,533.5566,498.4096,540.7669,505.0221,537.8902,504.91,530.68" style="stroke:#181818;stroke-width:1.0;"/><text fill="#000000" font-family="sans-serif" font-size="13" lengthAdjust="spacing" textLength="8" x="492.1642" y="550.2605">1</text><text fill="#000000" font-family="sans-serif" font-size="13" lengthAdjust="spacing" textLength="23" x="407.8051" y="637.5348">0..*</text></g><!--MD5=[c690d07bc0e0e8121fd88686aad177ba]
reverse link Map to Player--><g id="link_Map_Player"><path codeLine="103" d="M766.2,538.31 C824.41,579.24 883.71,620.94 922.62,648.3 " fill="none" id="Map-backto-Player" style="stroke:#181818;stroke-width:1.0;"/><polygon fill="none" points="755.34,530.68,757.9525,537.4012,765.1615,537.5748,762.549,530.8536,755.34,530.68" style="stroke:#181818;stroke-width:1.0;"/><text fill="#000000" font-family="sans-serif" font-size="13" lengthAdjust="spacing" textLength="8" x="757.0722" y="550.2605">1</text><text fill="#000000" font-family="sans-serif" font-size="13" lengthAdjust="spacing" textLength="8" x="905.0952" y="637.5348">1</text></g><!--MD5=[feb89e6bb23c329ef4104b0718ed2181]
reverse link ICollision to RadiusCollision--><g id="link_ICollision_RadiusCollision"><path codeLine="106" d="M1523.86,469.13 C1528.09,521.06 1534.1,594.87 1537.77,639.84 " fill="none" id="ICollision-backto-RadiusCollision" style="stroke:#181818;stroke-width:1.0;stroke-dasharray:7.0,7.0;"/><polygon fill="none" points="1516.87,469.55,1522.22,449.05,1530.82,468.41,1516.87,469.55" style="stroke:#181818;stroke-width:1.0;"/></g><!--MD5=[d7a310c36b833a9fff8e9aa70b1eb023]
reverse link IRender to SFMLRender--><g id="link_IRender_SFMLRender"><path codeLine="109" d="M1964.81,460.95 C1960.31,516.2 1953.3,602.22 1949.56,648.13 " fill="none" id="IRender-backto-SFMLRender" style="stroke:#181818;stroke-width:1.0;stroke-dasharray:7.0,7.0;"/><polygon fill="none" points="1957.85,460.1,1966.45,440.74,1971.81,461.24,1957.85,460.1" style="stroke:#181818;stroke-width:1.0;"/></g><!--MD5=[d940d35487e78d4eaf38a068302ab09c]
reverse link IRender to ViewUpRender--><g id="link_IRender_ViewUpRender"><path codeLine="110" d="M2010.79,455.55 C2060.6,510.44 2142.49,600.69 2185.53,648.13 " fill="none" id="IRender-backto-ViewUpRender" style="stroke:#181818;stroke-width:1.0;stroke-dasharray:7.0,7.0;"/><polygon fill="none" points="2005.6,460.25,1997.34,440.74,2015.97,450.84,2005.6,460.25" style="stroke:#181818;stroke-width:1.0;"/></g><!--MD5=[61cfb0edc56d222d5c5f7d871b1a3653]
reverse link IRender to ASCIIRender--><g id="link_IRender_ASCIIRender"><path codeLine="111" d="M2002.81,456.7 C2031.22,493.05 2074.98,541.85 2124,571 C2212.32,623.52 2248.95,601.26 2347,632 C2363.02,637.02 2379.98,642.73 2396.25,648.4 " fill="none" id="IRender-backto-ASCIIRender" style="stroke:#181818;stroke-width:1.0;stroke-dasharray:7.0,7.0;"/><polygon fill="none" points="1997.02,460.66,1990.5,440.5,2008.17,452.19,1997.02,460.66" style="stroke:#181818;stroke-width:1.0;"/></g><!--MD5=[12bb95a47a00263d9ac83c2497efb6a3]
reverse link Entity to Player--><g id="link_Entity_Player"><path codeLine="114" d="M967,591.56 C967,613.21 967,633.01 967,648.32 " fill="none" id="Entity-backto-Player" style="stroke:#181818;stroke-width:1.0;"/><polygon fill="none" points="960,591.24,967,571.24,974,591.24,960,591.24" style="stroke:#181818;stroke-width:1.0;"/></g><!--MD5=[865be20b675915cac31db4d9d4c9b265]
reverse link Entity to Enemy--><g id="link_Entity_Enemy"><path codeLine="115" d="M833.55,570.65 C833.37,570.77 833.18,570.88 833,571 C789.38,598.61 672.62,627.48 572.65,648.49 " fill="none" id="Entity-backto-Enemy" style="stroke:#181818;stroke-width:1.0;"/><polygon fill="none" points="829.77,564.75,850.14,558.94,837.84,576.19,829.77,564.75" style="stroke:#181818;stroke-width:1.0;"/></g><!--MD5=[9df31f8679e62b47a877d919943fff14]
link Game to ICollision--><g id="link_Game_ICollision"><path codeLine="118" d="M1519,169.37 C1519,230.66 1519,312.8 1519,362.85 " fill="none" id="Game-to-ICollision" style="stroke:#181818;stroke-width:1.0;"/><polygon fill="#181818" points="1519,367.89,1523,358.89,1519,362.89,1515,358.89,1519,367.89" style="stroke:#181818;stroke-width:1.0;"/><text fill="#000000" font-family="sans-serif" font-size="13" lengthAdjust="spacing" textLength="30" x="1520" y="212.0669">uses</text></g><!--MD5=[e45ebfab4ba5a151ef268f1c29c42c58]
link Game to IRender--><g id="link_Game_IRender"><path codeLine="119" d="M1631.07,138.57 C1688.1,166.28 1757,203.73 1813,246 C1862.78,283.58 1911.27,337.27 1940.64,372.25 " fill="none" id="Game-to-IRender" style="stroke:#181818;stroke-width:1.0;"/><polygon fill="#181818" points="1944.13,376.42,1941.4066,366.9552,1940.915,372.5906,1935.2796,372.0991,1944.13,376.42" style="stroke:#181818;stroke-width:1.0;"/><text fill="#000000" font-family="sans-serif" font-size="13" lengthAdjust="spacing" textLength="30" x="1770" y="212.0669">uses</text></g><!--MD5=[82c9cedf707e941c52dcac1ec3f458ab]
link Game to IMusic--><g id="link_Game_IMusic"><path codeLine="122" d="M1406.52,95.53 C1148.86,111.81 523.44,159.27 333,246 C277.75,271.16 227.02,318.75 193.06,355.78 " fill="none" id="Game-to-IMusic" style="stroke:#181818;stroke-width:1.0;"/><polygon fill="#181818" points="189.41,359.78,198.4284,355.8216,192.7776,356.0842,192.5151,350.4334,189.41,359.78" style="stroke:#181818;stroke-width:1.0;"/><text fill="#000000" font-family="sans-serif" font-size="13" lengthAdjust="spacing" textLength="30" x="473" y="212.0669">uses</text></g><!--MD5=[edbd0fe0246a56511c162c1e3af4637c]
reverse link IMusic to SFMLMusic--><g id="link_IMusic_SFMLMusic"><path codeLine="125" d="M130.41,476.44 C116.29,524.72 97.56,588.73 84.94,631.87 " fill="none" id="IMusic-backto-SFMLMusic" style="stroke:#181818;stroke-width:1.0;stroke-dasharray:7.0,7.0;"/><polygon fill="none" points="123.72,474.38,136.06,457.15,137.16,478.31,123.72,474.38" style="stroke:#181818;stroke-width:1.0;"/></g><!--MD5=[8b8164a9f3e706b3caf90714a28db3cb]
reverse link Game to Map--><g id="link_Game_Map"><path codeLine="128" d="M1394.02,104.27 C1253.35,124.45 1020.07,167.07 833,246 C806.34,257.25 779.38,271.3 753.53,286.4 " fill="none" id="Game-backto-Map" style="stroke:#181818;stroke-width:1.0;"/><polygon fill="none" points="1406.91,102.44,1400.407,99.3237,1395.0293,104.1278,1401.5323,107.2441,1406.91,102.44" style="stroke:#181818;stroke-width:1.0;"/><text fill="#000000" font-family="sans-serif" font-size="13" lengthAdjust="spacing" textLength="8" x="1391.1102" y="99.975">1</text><text fill="#000000" font-family="sans-serif" font-size="13" lengthAdjust="spacing" textLength="8" x="755.6779" y="275.5868">1</text></g><!--MD5=[4930964620207e4d69588cddcfc7708e]
reverse link Game to RayCasting--><g id="link_Game_RayCasting"><path codeLine="131" d="M1644.44,103.44 C1771.58,122.1 1970.83,162.68 2124,246 C2181.19,277.11 2234.43,330.8 2267.06,367.68 " fill="none" id="Game-backto-RayCasting" style="stroke:#181818;stroke-width:1.0;"/><polygon fill="none" points="1631.22,101.53,1636.5873,106.3458,1643.097,103.2437,1637.7297,98.4278,1631.22,101.53" style="stroke:#181818;stroke-width:1.0;"/><text fill="#000000" font-family="sans-serif" font-size="13" lengthAdjust="spacing" textLength="8" x="1639.0285" y="99.0039">1</text><text fill="#000000" font-family="sans-serif" font-size="13" lengthAdjust="spacing" textLength="8" x="2252.9418" y="356.7885">1</text></g><!--MD5=[b90190bd71d86e8b00e28c0ff73e9f18]
@startuml
class Game {
  -IMusic mus
  -Map map
  -RayCasting raycaster
  -ICollision collisionSystem
  -IRender renderSystem 
  +void switchRender(IRender*)
  +void update()
}

interface IMusic {
  +virtual void play()
  +virtual void stop()
  +virtual void setValue()
}

class SFMLMusic {
  +void play()
  +void stop()
  +void setValue()
}

class Map {
  -vector<vector<int>> grid
  -vector<std::unique_ptr<Enemy>> enemies 
  -std::unique_ptr<Player> player
  +bool checkAccessToAddObj(float x, float y) const
  +void setPlayerPosition(float x, float y)
  +void addWall(int x, int y)
  +void removeWall(int x, int y)
  +void addEnemy(float x, float y)
  +const Player& getPlayer() const
  +const vector<std::unique_ptr<Wall>>& getWalls() const
  +const vector<std::unique_ptr<Enemy>>& getEnemies() const
  +void removeEnemy(Enemy* enemy)
}

interface ICollision {
  +virtual bool checkMoveToCollision(const Map& map, float new_x, float new_y)
  +virtual bool checkFireCollision(const Map& map)
}

class RadiusCollision {
  +bool checkMoveToCollision(const Map& map, float new_x, float new_y)
  +bool checkFireCollision(const Map& map)
}

interface IRender {
  +virtual void render(const Map& map)
}

class RayCasting {
  -float FieldOfView
  +vector<float> castRays(const Map& map)
}

class SFMLRender {
  +void render(const Map& map)
}

class ViewUpRender {
  +void render(const Map& map)
}

class ASCIIRender {
  +void render(const Map& map)
}

class Entity {
  -int hp
  -float x
  -float y
  -float speed
  -float angle
  +float GetX() const
  +float GetY() const
  +float GetAngle() const
  +int GetHP() const
  +void setSpeed(float speed)
  +float CalculateDX()
  +float CalculateDY()
  +void takeDamage(int damage)
  +void setHP(int hp)
  +void move(float dx, float dy)
  +void fire()
  +void Turn(float angle)
}

class Player {
  +void CheckPressKeyboard(const ICollision& collisionSystem, const Map& map)
}

class Enemy {
  +void EnemyAI(const ICollision& collisionSystem, const Map& map)
}

' Связи между классами

' 1. Композиция (Map содержит Wall и Enemy)
Map "1" *- - "0..*" Enemy

' 2. Агрегация (Map использует Player, но Player может существовать отдельно)
Map "1" o- - "1" Player

' 3. Реализация интерфейсов (RadiusCollision реализует ICollision)
ICollision <|.. RadiusCollision

' 4. Реализация интерфейсов (Различные реализации IRender)
IRender <|.. SFMLRender
IRender <|.. ViewUpRender
IRender <|.. ASCIIRender

' 5. Наследование (Player и Enemy наследуют Entity)
Entity <|- - Player
Entity <|- - Enemy

' 6. Ассоциация (Game использует интерфейсы)
Game - -> ICollision : uses
Game - -> IRender : uses

' 7. Ассоциация (Game использует интерфейс)
Game - -> IMusic : uses

' 8. Реализация интерфейса (Реализация SFML музыки)
IMusic <|.. SFMLMusic

' 9.
Game "1" o- - "1" Map

' 10. Отдельный сервис для обработки лучей (RayCasting)
Game "1" o- - "1" RayCasting
@enduml

@startuml
class Game {
  -IMusic mus
  -Map map
  -RayCasting raycaster
  -ICollision collisionSystem
  -IRender renderSystem 
  +void switchRender(IRender*)
  +void update()
}

interface IMusic {
  +virtual void play()
  +virtual void stop()
  +virtual void setValue()
}

class SFMLMusic {
  +void play()
  +void stop()
  +void setValue()
}

class Map {
  -vector<vector<int>> grid
  -vector<std::unique_ptr<Enemy>> enemies 
  -std::unique_ptr<Player> player
  +bool checkAccessToAddObj(float x, float y) const
  +void setPlayerPosition(float x, float y)
  +void addWall(int x, int y)
  +void removeWall(int x, int y)
  +void addEnemy(float x, float y)
  +const Player& getPlayer() const
  +const vector<std::unique_ptr<Wall>>& getWalls() const
  +const vector<std::unique_ptr<Enemy>>& getEnemies() const
  +void removeEnemy(Enemy* enemy)
}

interface ICollision {
  +virtual bool checkMoveToCollision(const Map& map, float new_x, float new_y)
  +virtual bool checkFireCollision(const Map& map)
}

class RadiusCollision {
  +bool checkMoveToCollision(const Map& map, float new_x, float new_y)
  +bool checkFireCollision(const Map& map)
}

interface IRender {
  +virtual void render(const Map& map)
}

class RayCasting {
  -float FieldOfView
  +vector<float> castRays(const Map& map)
}

class SFMLRender {
  +void render(const Map& map)
}

class ViewUpRender {
  +void render(const Map& map)
}

class ASCIIRender {
  +void render(const Map& map)
}

class Entity {
  -int hp
  -float x
  -float y
  -float speed
  -float angle
  +float GetX() const
  +float GetY() const
  +float GetAngle() const
  +int GetHP() const
  +void setSpeed(float speed)
  +float CalculateDX()
  +float CalculateDY()
  +void takeDamage(int damage)
  +void setHP(int hp)
  +void move(float dx, float dy)
  +void fire()
  +void Turn(float angle)
}

class Player {
  +void CheckPressKeyboard(const ICollision& collisionSystem, const Map& map)
}

class Enemy {
  +void EnemyAI(const ICollision& collisionSystem, const Map& map)
}


Map "1" *- - "0..*" Enemy

Map "1" o- - "1" Player

ICollision <|.. RadiusCollision

IRender <|.. SFMLRender
IRender <|.. ViewUpRender
IRender <|.. ASCIIRender

Entity <|- - Player
Entity <|- - Enemy

Game - -> ICollision : uses
Game - -> IRender : uses

Game - -> IMusic : uses

IMusic <|.. SFMLMusic

Game "1" o- - "1" Map

Game "1" o- - "1" RayCasting
@enduml

PlantUML version 1.2022.7(Mon Aug 22 17:01:30 UTC 2022)
(GPL source distribution)
Java Runtime: OpenJDK Runtime Environment
JVM: OpenJDK 64-Bit Server VM
Default Encoding: UTF-8
Language: en
Country: null
--></g></svg>